HIERARCHY
ROOT Hips
{
	OFFSET 0.00000 0.00000 0.00000
	CHANNELS 6 Xposition Yposition Zposition Zrotation Yrotation Xrotation 
	JOINT LHipJoint
	{
		OFFSET 0 0 0
		CHANNELS 3 Zrotation Yrotation Xrotation
		JOINT LeftUpLeg
		{
			OFFSET 1.42489 -1.84941 0.69647
			CHANNELS 3 Zrotation Yrotation Xrotation
			JOINT LeftLeg
			{
				OFFSET 2.44443 -6.71602 0.00000
				CHANNELS 3 Zrotation Yrotation Xrotation
				JOINT LeftFoot
				{
					OFFSET 2.62838 -7.22137 0.00000
					CHANNELS 3 Zrotation Yrotation Xrotation
					JOINT LeftToeBase
					{
						OFFSET 0.24036 -0.66037 2.29953
						CHANNELS 3 Zrotation Yrotation Xrotation
						End Site
						{
							OFFSET 0.00000 -0.00000 1.19837
						}
					}
				}
			}
		}
	}
	JOINT RHipJoint
	{
		OFFSET 0 0 0
		CHANNELS 3 Zrotation Yrotation Xrotation
		JOINT RightUpLeg
		{
			OFFSET -1.37055 -1.84941 0.69647
			CHANNELS 3 Zrotation Yrotation Xrotation
			JOINT RightLeg
			{
				OFFSET -2.54834 -7.00152 0.00000
				CHANNELS 3 Zrotation Yrotation Xrotation
				JOINT RightFoot
				{
					OFFSET -2.65692 -7.29983 0.00000
					CHANNELS 3 Zrotation Yrotation Xrotation
					JOINT RightToeBase
					{
						OFFSET -0.18839 -0.51760 2.29390
						CHANNELS 3 Zrotation Yrotation Xrotation
						End Site
						{
							OFFSET -0.00000 -0.00000 1.18261
						}
					}
				}
			}
		}
	}
	JOINT LowerBack
	{
		OFFSET 0 0 0
		CHANNELS 3 Zrotation Yrotation Xrotation
		JOINT Spine
		{
			OFFSET 0.05220 2.15489 0.05011
			CHANNELS 3 Zrotation Yrotation Xrotation
			JOINT Spine1
			{
				OFFSET -0.07653 2.14219 -0.05668
				CHANNELS 3 Zrotation Yrotation Xrotation
				JOINT Neck
				{
					OFFSET 0 0 0
					CHANNELS 3 Zrotation Yrotation Xrotation
					JOINT Neck1
					{
						OFFSET 0.01370 1.58638 0.01447
						CHANNELS 3 Zrotation Yrotation Xrotation
						JOINT Head
						{
							OFFSET 0.23548 1.54190 -0.21747
							CHANNELS 3 Zrotation Yrotation Xrotation
							End Site
							{
								OFFSET 0.07132 1.59823 -0.08163
							}
						}
					}
				}
				JOINT LeftShoulder
				{
					OFFSET 0 0 0
					CHANNELS 3 Zrotation Yrotation Xrotation
					JOINT LeftArm
					{
						OFFSET 3.47056 1.45357 -0.58896
						CHANNELS 3 Zrotation Yrotation Xrotation
						JOINT LeftForeArm
						{
							OFFSET 5.19069 -0.00000 0.00000
							CHANNELS 3 Zrotation Yrotation Xrotation
							JOINT LeftHand
							{
								OFFSET 3.30016 -0.00000 0.00000
								CHANNELS 3 Zrotation Yrotation Xrotation
								JOINT LeftFingerBase
								{
									OFFSET 0 0 0
									CHANNELS 3 Zrotation Yrotation Xrotation
									JOINT LeftHandIndex1
									{
										OFFSET 0.70770 -0.00000 0.00000
										CHANNELS 3 Zrotation Yrotation Xrotation
										End Site
										{
											OFFSET 0.57056 -0.00000 0.00000
										}
									}
								}
								JOINT LThumb
								{
									OFFSET 0 0 0
									CHANNELS 3 Zrotation Yrotation Xrotation
									End Site
									{
										OFFSET 0.57928 -0.00000 0.57928
									}
								}
							}
						}
					}
				}
				JOINT RightShoulder
				{
					OFFSET 0 0 0
					CHANNELS 3 Zrotation Yrotation Xrotation
					JOINT RightArm
					{
						OFFSET -2.89018 2.03305 -0.26731
						CHANNELS 3 Zrotation Yrotation Xrotation
						JOINT RightForeArm
						{
							OFFSET -5.23924 -0.00000 0.00000
							CHANNELS 3 Zrotation Yrotation Xrotation
							JOINT RightHand
							{
								OFFSET -3.32953 -0.00000 0.00000
								CHANNELS 3 Zrotation Yrotation Xrotation
								JOINT RightFingerBase
								{
									OFFSET 0 0 0
									CHANNELS 3 Zrotation Yrotation Xrotation
									JOINT RightHandIndex1
									{
										OFFSET -0.60741 -0.00000 0.00000
										CHANNELS 3 Zrotation Yrotation Xrotation
										End Site
										{
											OFFSET -0.48971 -0.00000 0.00000
										}
									}
								}
								JOINT RThumb
								{
									OFFSET 0 0 0
									CHANNELS 3 Zrotation Yrotation Xrotation
									End Site
									{
										OFFSET -0.49719 -0.00000 0.49719
									}
								}
							}
						}
					}
				}
			}
		}
	}
}
MOTION
Frames: 7
Frame Time: .0083333
2.2217 17.2196 -6.4775 -89.8557 -74.5380 84.7848 0.0000 0.0000 0.0000 0.8818 -7.9813 -72.6223 31.7805 16.2783 126.6507 0.1090 -18.1947 -13.7678 1.2469 -7.0800 -19.9527 0.0000 0.0000 0.0000 33.9582 5.1476 -7.8303 -2.5220 -9.8778 28.5820 -0.7036 9.6169 -15.4214 -0.6311 5.0831 -14.1457 15.9108 0.1400 8.2384 1.5543 0.5851 7.5358 -7.2786 0.8069 3.7276 3.4679 3.7799 -4.7178 6.2243 3.8814 11.1139 1.6966 2.2818 4.4755 0.0000 -0.0000 0.0000 -84.1944 26.4608 81.5968 35.7455 -45.3372 -15.3412 -0.0000 -0.0000 2.3115 -6.3099 -33.1675 3.4619 -7.1250 0.0000 -0.0000 -21.1274 -1.4611 23.2873 0.0000 -0.0000 0.0000 90.4409 -32.1252 61.5216 -39.2376 47.6117 -17.8741 0.0000 0.0000 16.1463 -2.4741 11.7824 -0.5055 7.1250 -0.0000 -0.0000 17.1263 -18.4539 11.3419
2.2225 17.2430 -6.5295 -87.7727 -74.8570 82.6670 0.0000 0.0000 0.0000 0.5180 -8.3529 -71.8883 31.6022 16.4042 126.0170 0.2040 -17.5332 -14.1756 1.2373 -7.0537 -19.8745 0.0000 0.0000 0.0000 33.7712 4.9823 -7.6593 -2.4828 -9.8066 28.3527 -0.7472 9.1875 -15.7528 -0.6314 5.0843 -14.1492 15.4280 0.1785 8.2028 1.4418 0.6138 7.5599 -7.1340 0.8104 3.7559 3.4749 3.7099 -4.5949 6.3008 3.7839 11.1015 1.7123 2.2347 4.4468 -0.0000 -0.0000 0.0000 -83.9080 26.4527 81.8306 35.9200 -45.4580 -15.4655 -0.0000 -0.0000 2.1275 -6.5369 -33.0113 3.5722 -7.1250 0.0000 -0.0000 -21.2500 -1.3062 23.3854 -0.0000 -0.0000 0.0000 90.6588 -32.1503 61.4286 -39.2873 47.6419 -17.9108 0.0000 0.0000 15.4483 -2.1913 11.6213 -0.4416 7.1250 -0.0000 -0.0000 17.3325 -18.6148 11.4268
2.2234 17.2657 -6.5791 -85.6001 -75.1672 80.5061 0.0000 0.0000 0.0000 0.1156 -8.6632 -71.1669 31.4105 16.5362 125.3405 0.3004 -16.8245 -14.5962 1.2304 -7.0346 -19.8178 0.0000 0.0000 0.0000 33.5404 4.8029 -7.5597 -2.4488 -9.7442 28.1522 -0.7919 8.8412 -16.1164 -0.6449 5.1375 -14.3010 14.9501 0.2259 8.1339 1.3254 0.6506 7.5757 -6.9956 0.8187 3.7958 3.4711 3.6369 -4.5052 6.3693 3.6822 11.1023 1.7284 2.1857 4.4297 -0.0000 -0.0000 0.0000 -83.6372 26.4863 82.0715 36.0843 -45.5710 -15.5827 -0.0000 -0.0000 1.7605 -6.8802 -32.8460 3.7444 -7.1250 0.0000 -0.0000 -21.4336 -1.1393 23.5562 -0.0000 -0.0000 0.0000 90.8573 -32.1751 61.3767 -39.3223 47.6632 -17.9367 0.0000 0.0000 14.7577 -1.8932 11.4230 -0.3751 7.1250 -0.0000 -0.0000 17.5532 -18.8109 11.5065
2.2247 17.2869 -6.6264 -83.3203 -75.4566 78.2860 0.0000 0.0000 0.0000 -0.3103 -8.9239 -70.4729 31.2052 16.6739 124.6222 0.3944 -16.0891 -15.0120 1.2232 -7.0148 -19.7592 0.0000 0.0000 0.0000 33.2785 4.6132 -7.5440 -2.4232 -9.6970 28.0008 -0.8400 8.5548 -16.5240 -0.6717 5.2408 -14.5965 14.4775 0.2746 8.0383 1.2146 0.6874 7.5793 -6.8531 0.8264 3.8374 3.4575 3.5676 -4.4569 6.4174 3.5848 11.1305 1.7418 2.1391 4.4311 -0.0000 -0.0000 0.0000 -83.4215 26.5684 82.2850 36.2182 -45.6626 -15.6783 -0.0000 -0.0000 1.3227 -7.2834 -32.6763 3.9473 -7.1250 0.0000 -0.0000 -21.6489 -0.9675 23.7654 -0.0000 -0.0000 0.0000 91.0180 -32.1991 61.3392 -39.3468 47.6781 -17.9548 0.0000 0.0000 14.0205 -1.4405 11.2679 -0.2815 7.1250 -0.0000 -0.0000 17.8748 -18.9680 11.6735
2.2273 17.3060 -6.6714 -80.8915 -75.7161 75.9610 0.0000 0.0000 0.0000 -0.7508 -9.1613 -69.8121 30.9855 16.8170 123.8598 0.4843 -15.3316 -15.4134 1.2212 -7.0093 -19.7429 0.0000 0.0000 0.0000 32.9942 4.4041 -7.6213 -2.4085 -9.6696 27.9131 -0.8934 8.3059 -16.9840 -0.7120 5.3928 -15.0325 14.0131 0.3169 7.9259 1.1129 0.7155 7.5712 -6.7043 0.8289 3.8739 3.4354 3.5049 -4.4519 6.4380 3.4966 11.1854 1.7498 2.0971 4.4510 -0.0000 -0.0000 0.0000 -83.2607 26.6929 82.4608 36.3253 -45.7356 -15.7550 -0.0000 -0.0000 0.8974 -7.7017 -32.5071 4.1567 -7.1250 0.0000 -0.0000 -21.8723 -0.7973 23.9853 -0.0000 -0.0000 0.0000 91.1262 -32.2272 61.3311 -39.3691 47.6916 -17.9712 0.0000 0.0000 13.2987 -0.9318 11.1283 -0.1799 7.1250 -0.0000 -0.0000 18.2329 -19.1103 11.8719
2.2314 17.3224 -6.7143 -78.2996 -75.9348 73.5062 0.0000 0.0000 0.0000 -1.1971 -9.3858 -69.1822 30.7511 16.9652 123.0531 0.5665 -14.5772 -15.7834 1.2177 -6.9997 -19.7146 0.0000 0.0000 0.0000 32.6965 4.1699 -7.7878 -2.4061 -9.6650 27.8987 -0.9531 8.0824 -17.4992 -0.7654 5.5869 -15.5904 13.5629 0.3479 7.8100 1.0220 0.7305 7.5539 -6.5506 0.8239 3.9001 3.4168 3.4502 -4.4842 6.4234 3.4206 11.2566 1.7474 2.0609 4.4849 -0.0000 -0.0000 0.0000 -83.1562 26.8578 82.5746 36.4141 -45.7959 -15.8186 -0.0000 -0.0000 0.5459 -8.1166 -32.3405 4.3628 -7.1250 0.0000 -0.0000 -22.0943 -0.6310 24.2045 -0.0000 -0.0000 0.0000 91.1828 -32.2639 61.3462 -39.3984 47.7094 -17.9930 0.0000 0.0000 12.5841 -0.3759 11.0168 -0.0718 7.1250 -0.0000 -0.0000 18.6200 -19.2250 12.1024
2.2372 17.3350 -6.7553 -75.5457 -76.0936 70.9100 0.0000 0.0000 0.0000 -1.6316 -9.6010 -68.5801 30.5017 17.1179 122.2019 0.6399 -13.8408 -16.1178 1.2135 -6.9881 -19.6801 0.0000 0.0000 0.0000 32.4029 3.8978 -8.0408 -2.4172 -9.6857 27.9648 -1.0191 7.8860 -18.0650 -0.8310 5.8155 -16.2502 13.1429 0.3659 7.6999 0.9465 0.7308 7.5337 -6.3965 0.8113 3.9185 3.4016 3.4026 -4.5436 6.3732 3.3576 11.3223 1.7333 2.0303 4.5225 0.0000 0.0000 0.0000 -83.0951 27.0544 82.6517 36.4897 -45.8471 -15.8729 -0.0000 -0.0000 0.3479 -8.4663 -32.1793 4.5325 -7.1250 0.0000 -0.0000 -22.2825 -0.4725 24.3832 0.0000 0.0000 0.0000 91.1911 -32.3110 61.3963 -39.4371 47.7328 -18.0216 0.0000 0.0000 11.9677 0.0732 10.9107 0.0139 7.1250 -0.0000 -0.0000 18.9344 -19.3318 12.2831
